<svg version="1.2" xmlns="http://www.w3.org/2000/svg" viewBox="0 0 1552 776" width="1552" height="776"><style>.a{fill:#009b1a}</style><path fill-rule="evenodd" class="a" d="m1396.4 642.1c0 15.3-1.2 29.7-3.5 47h159.1v86.9h-1552v-86.9h159.1c-2.3-17.3-3.5-31.7-3.5-47 0-150.9 107.1-277 249.8-299.6 7.8-41.4 22.3-81.4 42.8-118.1-13.8-22.9-21.1-49.2-21.1-76.8 0-81.4 65-147.6 145-147.6 39.1 0 76.3 16.4 103.3 44.3 67.9-19.2 141.4-18.4 209.1 2.3 27-29.3 65-46.5 105.7-46.5 79.9 0 144.9 66.3 144.9 147.7 0 31-9.4 60.9-26.6 85.6 18 34.2 30.9 71.6 38.1 109.8 142.6 22.7 249.8 148 249.8 298.9zm-1155.5 0.6c0 15 1.5 29.1 4.5 46.4h103.5c-6.8-17.3-10.6-27.4-10.6-42.3 0-45.5 36.2-84.1 81-84.1 44.7 0 81 38 81 83.6 0 14.8-3.9 25.5-10.6 42.8h572.6c-6.7-17.3-10.6-27.4-10.6-42.3 0-45.5 36.3-84.1 81-84.1 44.8 0 81 38 81 83.6 0 14.8-3.8 25.5-10.6 42.8h103.5c3-17.3 4.5-31.4 4.5-46.4 0-116.3-89.4-212.8-203.4-216.9l-37.5-1.3-3.5-38c-4.4-48-20.5-94.7-46.6-135l-20.9-32.4 29.2-24.8c13.6-11.6 21.5-28.6 21.5-46.7 0-33.5-26.8-60.8-59.7-60.8-22 0-42.1 12.3-52.6 32l-18.1 34-35.2-14.3c-34.6-14.1-71-21.3-108.3-21.3-34.7 0-68.7 6.2-101.1 18.3l-33.4 12.6-18.1-31.2c-10.9-18.8-30.1-30.1-51.3-30.1-33 0-59.7 27.3-59.7 60.8 0 16.4 6.3 31.7 17.7 43.3l25.4 25.5-20.2 30c-28.1 41.5-45.4 89.9-50 140.1l-3.5 38-37.5 1.3c-114 4.1-203.4 100.6-203.4 216.9zm423.4-224.4c-33 0-59.7-27.1-59.7-60.8 0-33.6 26.7-60.8 59.7-60.8 33 0 59.7 27.2 59.7 60.8 0 33.7-26.7 60.8-59.7 60.8zm223.4 0c-33 0-59.7-27.1-59.7-60.8 0-33.6 26.7-60.8 59.7-60.8 33 0 59.7 27.2 59.7 60.8 0 33.7-26.7 60.8-59.7 60.8z"/></svg>